<?xml version="1.0" encoding="UTF-8" standalone="no"?>
<!DOCTYPE svg PUBLIC "-//W3C//DTD SVG 1.1//EN"
 "http://www.w3.org/Graphics/SVG/1.1/DTD/svg11.dtd">
<!-- Generated by graphviz version 2.44.0 (0)
 -->
<!-- Title: DataCollectionFSM Pages: 1 -->
<svg width="3249pt" height="331pt"
 viewBox="0.00 0.00 3249.08 331.00" xmlns="http://www.w3.org/2000/svg" xmlns:xlink="http://www.w3.org/1999/xlink">
<g id="graph0" class="graph" transform="scale(1 1) rotate(0) translate(18 313)">
<title>DataCollectionFSM</title>
<polygon fill="white" stroke="transparent" points="-18,18 -18,-313 3231.08,-313 3231.08,18 -18,18"/>
<text text-anchor="middle" x="1606.54" y="-276.6" font-family="Helvetica" font-size="18.00">Monty Hall Data&#45;Collection EFSM</text>
<text text-anchor="middle" x="1606.54" y="-256.6" font-family="Helvetica" font-size="18.00">(what we do, what we log, and when we stop)</text>
<g id="clust1" class="cluster">
<title>cluster_setup</title>
<path fill="none" stroke="black" d="M301.04,-31C301.04,-31 911.08,-31 911.08,-31 917.08,-31 923.08,-37 923.08,-43 923.08,-43 923.08,-107 923.08,-107 923.08,-113 917.08,-119 911.08,-119 911.08,-119 301.04,-119 301.04,-119 295.04,-119 289.04,-113 289.04,-107 289.04,-107 289.04,-43 289.04,-43 289.04,-37 295.04,-31 301.04,-31"/>
<text text-anchor="middle" x="606.06" y="-100.6" font-family="Helvetica" font-size="18.00">Trial Setup</text>
</g>
<g id="clust2" class="cluster">
<title>cluster_play</title>
<path fill="none" stroke="black" d="M991.08,-30C991.08,-30 2351.08,-30 2351.08,-30 2357.08,-30 2363.08,-36 2363.08,-42 2363.08,-42 2363.08,-130 2363.08,-130 2363.08,-136 2357.08,-142 2351.08,-142 2351.08,-142 991.08,-142 991.08,-142 985.08,-142 979.08,-136 979.08,-130 979.08,-130 979.08,-42 979.08,-42 979.08,-36 985.08,-30 991.08,-30"/>
<text text-anchor="middle" x="1671.08" y="-123.6" font-family="Helvetica" font-size="18.00">Gameplay</text>
</g>
<g id="clust3" class="cluster">
<title>cluster_log</title>
<path fill="none" stroke="black" d="M2463.08,-30C2463.08,-30 3193.08,-30 3193.08,-30 3199.08,-30 3205.08,-36 3205.08,-42 3205.08,-42 3205.08,-118 3205.08,-118 3205.08,-124 3199.08,-130 3193.08,-130 3193.08,-130 2463.08,-130 2463.08,-130 2457.08,-130 2451.08,-124 2451.08,-118 2451.08,-118 2451.08,-42 2451.08,-42 2451.08,-36 2457.08,-30 2463.08,-30"/>
<text text-anchor="middle" x="2828.08" y="-111.6" font-family="Helvetica" font-size="18.00">Logging + Aggregation</text>
</g>
<g id="clust4" class="cluster">
<title>cluster_stop</title>
<path fill="none" stroke="black" d="M20,-127C20,-127 469.08,-127 469.08,-127 475.08,-127 481.08,-133 481.08,-139 481.08,-139 481.08,-227 481.08,-227 481.08,-233 475.08,-239 469.08,-239 469.08,-239 20,-239 20,-239 14,-239 8,-233 8,-227 8,-227 8,-139 8,-139 8,-133 14,-127 20,-127"/>
<text text-anchor="middle" x="244.54" y="-220.6" font-family="Helvetica" font-size="18.00">Stop?</text>
</g>
<!-- Start -->
<g id="node1" class="node">
<title>Start</title>
<path fill="none" stroke="black" d="M401.04,-82C401.04,-82 309.04,-82 309.04,-82 303.04,-82 297.04,-76 297.04,-70 297.04,-70 297.04,-58 297.04,-58 297.04,-52 303.04,-46 309.04,-46 309.04,-46 401.04,-46 401.04,-46 407.04,-46 413.04,-52 413.04,-58 413.04,-58 413.04,-70 413.04,-70 413.04,-76 407.04,-82 401.04,-82"/>
<text text-anchor="middle" x="355.04" y="-67.2" font-family="Helvetica" font-size="11.00">Start / Next Trial</text>
<text text-anchor="middle" x="355.04" y="-55.2" font-family="Helvetica" font-size="11.00">(action: trial_id += 1)</text>
</g>
<!-- Seed -->
<g id="node2" class="node">
<title>Seed</title>
<path fill="none" stroke="black" d="M656.08,-82C656.08,-82 562.08,-82 562.08,-82 556.08,-82 550.08,-76 550.08,-70 550.08,-70 550.08,-58 550.08,-58 550.08,-52 556.08,-46 562.08,-46 562.08,-46 656.08,-46 656.08,-46 662.08,-46 668.08,-52 668.08,-58 668.08,-58 668.08,-70 668.08,-70 668.08,-76 662.08,-82 656.08,-82"/>
<text text-anchor="middle" x="609.08" y="-67.2" font-family="Helvetica" font-size="11.00">Seed RNG (optional)</text>
<text text-anchor="middle" x="609.08" y="-55.2" font-family="Helvetica" font-size="11.00">(action: set seed)</text>
</g>
<!-- Start&#45;&gt;Seed -->
<g id="edge1" class="edge">
<title>Start&#45;&gt;Seed</title>
<path fill="none" stroke="black" d="M413.23,-64C450.78,-64 500.08,-64 539.69,-64"/>
<polygon fill="black" stroke="black" points="539.8,-67.5 549.8,-64 539.8,-60.5 539.8,-67.5"/>
<text text-anchor="middle" x="511.58" y="-67" font-family="Helvetica" font-size="10.00">begin_trial</text>
</g>
<!-- Prize -->
<g id="node3" class="node">
<title>Prize</title>
<path fill="none" stroke="black" d="M903.08,-83C903.08,-83 755.08,-83 755.08,-83 749.08,-83 743.08,-77 743.08,-71 743.08,-71 743.08,-51 743.08,-51 743.08,-45 749.08,-39 755.08,-39 755.08,-39 903.08,-39 903.08,-39 909.08,-39 915.08,-45 915.08,-51 915.08,-51 915.08,-71 915.08,-71 915.08,-77 909.08,-83 903.08,-83"/>
<text text-anchor="middle" x="829.08" y="-70.2" font-family="Helvetica" font-size="11.00">Place Prize</text>
<text text-anchor="middle" x="829.08" y="-58.2" font-family="Helvetica" font-size="11.00">(action: prize_door = rand{1,2,3}</text>
<text text-anchor="middle" x="829.08" y="-46.2" font-family="Helvetica" font-size="11.00">log: prize_door)</text>
</g>
<!-- Seed&#45;&gt;Prize -->
<g id="edge2" class="edge">
<title>Seed&#45;&gt;Prize</title>
<path fill="none" stroke="black" d="M668.21,-63.2C688.12,-62.93 710.95,-62.61 733,-62.31"/>
<polygon fill="black" stroke="black" points="733.11,-65.81 743.06,-62.17 733.01,-58.81 733.11,-65.81"/>
<text text-anchor="middle" x="705.58" y="-65" font-family="Helvetica" font-size="10.00">rng_ready</text>
</g>
<!-- Pick -->
<g id="node4" class="node">
<title>Pick</title>
<path fill="none" stroke="black" d="M1153.08,-86C1153.08,-86 999.08,-86 999.08,-86 993.08,-86 987.08,-80 987.08,-74 987.08,-74 987.08,-54 987.08,-54 987.08,-48 993.08,-42 999.08,-42 999.08,-42 1153.08,-42 1153.08,-42 1159.08,-42 1165.08,-48 1165.08,-54 1165.08,-54 1165.08,-74 1165.08,-74 1165.08,-80 1159.08,-86 1153.08,-86"/>
<text text-anchor="middle" x="1076.08" y="-73.2" font-family="Helvetica" font-size="11.00">Player Chooses Door</text>
<text text-anchor="middle" x="1076.08" y="-61.2" font-family="Helvetica" font-size="11.00">(action: player_door = rand{1,2,3}</text>
<text text-anchor="middle" x="1076.08" y="-49.2" font-family="Helvetica" font-size="11.00">log: player_door)</text>
</g>
<!-- Prize&#45;&gt;Pick -->
<g id="edge3" class="edge">
<title>Prize&#45;&gt;Pick</title>
<path fill="none" stroke="black" d="M915.08,-62.04C934.94,-62.28 956.26,-62.55 976.65,-62.79"/>
<polygon fill="black" stroke="black" points="976.86,-66.3 986.9,-62.92 976.94,-59.3 976.86,-66.3"/>
<text text-anchor="middle" x="951.08" y="-65" font-family="Helvetica" font-size="10.00">prize_set</text>
</g>
<!-- Reveal -->
<g id="node5" class="node">
<title>Reveal</title>
<path fill="none" stroke="black" d="M1440.08,-106C1440.08,-106 1268.08,-106 1268.08,-106 1262.08,-106 1256.08,-100 1256.08,-94 1256.08,-94 1256.08,-50 1256.08,-50 1256.08,-44 1262.08,-38 1268.08,-38 1268.08,-38 1440.08,-38 1440.08,-38 1446.08,-38 1452.08,-44 1452.08,-50 1452.08,-50 1452.08,-94 1452.08,-94 1452.08,-100 1446.08,-106 1440.08,-106"/>
<text text-anchor="middle" x="1354.08" y="-93.2" font-family="Helvetica" font-size="11.00">Host Reveals Goat Door</text>
<text text-anchor="middle" x="1354.08" y="-81.2" font-family="Helvetica" font-size="11.00">(action: reveal_door = legal goat door</text>
<text text-anchor="middle" x="1354.08" y="-69.2" font-family="Helvetica" font-size="11.00">constraint: reveal_door ≠ prize_door,</text>
<text text-anchor="middle" x="1354.08" y="-57.2" font-family="Helvetica" font-size="11.00"> &#160;&#160;&#160;&#160;&#160;&#160;&#160;&#160;&#160;&#160;&#160;reveal_door ≠ player_door</text>
<text text-anchor="middle" x="1354.08" y="-45.2" font-family="Helvetica" font-size="11.00">log: reveal_door)</text>
</g>
<!-- Pick&#45;&gt;Reveal -->
<g id="edge4" class="edge">
<title>Pick&#45;&gt;Reveal</title>
<path fill="none" stroke="black" d="M1165.17,-66.55C1190.77,-67.3 1219.01,-68.11 1245.66,-68.89"/>
<polygon fill="black" stroke="black" points="1245.69,-72.39 1255.79,-69.18 1245.89,-65.39 1245.69,-72.39"/>
<text text-anchor="middle" x="1210.58" y="-71" font-family="Helvetica" font-size="10.00">player_picked</text>
</g>
<!-- Decide -->
<g id="node6" class="node">
<title>Decide</title>
<path fill="none" stroke="black" d="M1741.08,-93C1741.08,-93 1558.08,-93 1558.08,-93 1552.08,-93 1546.08,-87 1546.08,-81 1546.08,-81 1546.08,-61 1546.08,-61 1546.08,-55 1552.08,-49 1558.08,-49 1558.08,-49 1741.08,-49 1741.08,-49 1747.08,-49 1753.08,-55 1753.08,-61 1753.08,-61 1753.08,-81 1753.08,-81 1753.08,-87 1747.08,-93 1741.08,-93"/>
<text text-anchor="middle" x="1649.58" y="-80.2" font-family="Helvetica" font-size="11.00">Player Decision</text>
<text text-anchor="middle" x="1649.58" y="-68.2" font-family="Helvetica" font-size="11.00">(action: decision = coin_toss stay/switch</text>
<text text-anchor="middle" x="1649.58" y="-56.2" font-family="Helvetica" font-size="11.00">log: decision)</text>
</g>
<!-- Reveal&#45;&gt;Decide -->
<g id="edge5" class="edge">
<title>Reveal&#45;&gt;Decide</title>
<path fill="none" stroke="black" d="M1452.4,-71.67C1479.15,-71.58 1508.39,-71.48 1535.92,-71.38"/>
<polygon fill="black" stroke="black" points="1535.99,-74.88 1545.98,-71.35 1535.97,-67.88 1535.99,-74.88"/>
<text text-anchor="middle" x="1499.08" y="-74" font-family="Helvetica" font-size="10.00">goat_revealed</text>
</g>
<!-- Final -->
<g id="node7" class="node">
<title>Final</title>
<path fill="none" stroke="black" d="M2042.08,-95C2042.08,-95 1863.08,-95 1863.08,-95 1857.08,-95 1851.08,-89 1851.08,-83 1851.08,-83 1851.08,-51 1851.08,-51 1851.08,-45 1857.08,-39 1863.08,-39 1863.08,-39 2042.08,-39 2042.08,-39 2048.08,-39 2054.08,-45 2054.08,-51 2054.08,-51 2054.08,-83 2054.08,-83 2054.08,-89 2048.08,-95 2042.08,-95"/>
<text text-anchor="middle" x="1952.58" y="-82.2" font-family="Helvetica" font-size="11.00">Finalize Door</text>
<text text-anchor="middle" x="1952.58" y="-70.2" font-family="Helvetica" font-size="11.00">(action: final_door = player_door if stay</text>
<text text-anchor="middle" x="1952.58" y="-58.2" font-family="Helvetica" font-size="11.00"> &#160;&#160;&#160;&#160;&#160;&#160;&#160;&#160;&#160;&#160;&#160;&#160;&#160;&#160;&#160;&#160;else remaining closed door</text>
<text text-anchor="middle" x="1952.58" y="-46.2" font-family="Helvetica" font-size="11.00">log: final_door)</text>
</g>
<!-- Decide&#45;&gt;Final -->
<g id="edge6" class="edge">
<title>Decide&#45;&gt;Final</title>
<path fill="none" stroke="black" d="M1753.32,-69.63C1781.51,-69.26 1812.19,-68.85 1840.8,-68.47"/>
<polygon fill="black" stroke="black" points="1840.87,-71.97 1850.83,-68.34 1840.78,-64.97 1840.87,-71.97"/>
<text text-anchor="middle" x="1802.08" y="-72" font-family="Helvetica" font-size="10.00">decision_made</text>
</g>
<!-- Resolve -->
<g id="node8" class="node">
<title>Resolve</title>
<path fill="none" stroke="black" d="M2343.08,-88C2343.08,-88 2158.08,-88 2158.08,-88 2152.08,-88 2146.08,-82 2146.08,-76 2146.08,-76 2146.08,-56 2146.08,-56 2146.08,-50 2152.08,-44 2158.08,-44 2158.08,-44 2343.08,-44 2343.08,-44 2349.08,-44 2355.08,-50 2355.08,-56 2355.08,-56 2355.08,-76 2355.08,-76 2355.08,-82 2349.08,-88 2343.08,-88"/>
<text text-anchor="middle" x="2250.58" y="-75.2" font-family="Helvetica" font-size="11.00">Resolve Outcome</text>
<text text-anchor="middle" x="2250.58" y="-63.2" font-family="Helvetica" font-size="11.00">(action: win = (final_door == prize_door)</text>
<text text-anchor="middle" x="2250.58" y="-51.2" font-family="Helvetica" font-size="11.00">log: win)</text>
</g>
<!-- Final&#45;&gt;Resolve -->
<g id="edge7" class="edge">
<title>Final&#45;&gt;Resolve</title>
<path fill="none" stroke="black" d="M2054.2,-66.66C2080.43,-66.57 2108.88,-66.48 2135.75,-66.38"/>
<polygon fill="black" stroke="black" points="2135.97,-69.88 2145.96,-66.35 2135.94,-62.88 2135.97,-69.88"/>
<text text-anchor="middle" x="2100.08" y="-69" font-family="Helvetica" font-size="10.00">door_finalized</text>
</g>
<!-- Row -->
<g id="node9" class="node">
<title>Row</title>
<path fill="none" stroke="black" d="M2629.08,-94C2629.08,-94 2471.08,-94 2471.08,-94 2465.08,-94 2459.08,-88 2459.08,-82 2459.08,-82 2459.08,-50 2459.08,-50 2459.08,-44 2465.08,-38 2471.08,-38 2471.08,-38 2629.08,-38 2629.08,-38 2635.08,-38 2641.08,-44 2641.08,-50 2641.08,-50 2641.08,-82 2641.08,-82 2641.08,-88 2635.08,-94 2629.08,-94"/>
<text text-anchor="middle" x="2550.08" y="-81.2" font-family="Helvetica" font-size="11.00">Write Trial Row (CSV)</text>
<text text-anchor="middle" x="2550.08" y="-69.2" font-family="Helvetica" font-size="11.00">(trial_id, seed, prize_door,</text>
<text text-anchor="middle" x="2550.08" y="-57.2" font-family="Helvetica" font-size="11.00"> player_door, reveal_door,</text>
<text text-anchor="middle" x="2550.08" y="-45.2" font-family="Helvetica" font-size="11.00"> decision, final_door, win, strategy)</text>
</g>
<!-- Resolve&#45;&gt;Row -->
<g id="edge8" class="edge">
<title>Resolve&#45;&gt;Row</title>
<path fill="none" stroke="black" d="M2355.21,-66C2385.5,-66 2418.53,-66 2448.62,-66"/>
<polygon fill="black" stroke="black" points="2448.7,-69.5 2458.7,-66 2448.7,-62.5 2448.7,-69.5"/>
<text text-anchor="middle" x="2407.08" y="-69" font-family="Helvetica" font-size="10.00">outcome_known</text>
</g>
<!-- Agg -->
<g id="node10" class="node">
<title>Agg</title>
<path fill="none" stroke="black" d="M2883.08,-94C2883.08,-94 2736.08,-94 2736.08,-94 2730.08,-94 2724.08,-88 2724.08,-82 2724.08,-82 2724.08,-50 2724.08,-50 2724.08,-44 2730.08,-38 2736.08,-38 2736.08,-38 2883.08,-38 2883.08,-38 2889.08,-38 2895.08,-44 2895.08,-50 2895.08,-50 2895.08,-82 2895.08,-82 2895.08,-88 2889.08,-94 2883.08,-94"/>
<text text-anchor="middle" x="2809.58" y="-81.2" font-family="Helvetica" font-size="11.00">Update Counters</text>
<text text-anchor="middle" x="2809.58" y="-69.2" font-family="Helvetica" font-size="11.00">stay_win/stay_lose</text>
<text text-anchor="middle" x="2809.58" y="-57.2" font-family="Helvetica" font-size="11.00">switch_win/switch_lose</text>
<text text-anchor="middle" x="2809.58" y="-45.2" font-family="Helvetica" font-size="11.00">+ distributions for doors/decision</text>
</g>
<!-- Row&#45;&gt;Agg -->
<g id="edge9" class="edge">
<title>Row&#45;&gt;Agg</title>
<path fill="none" stroke="black" d="M2641.14,-66C2664.62,-66 2689.99,-66 2713.7,-66"/>
<polygon fill="black" stroke="black" points="2713.76,-69.5 2723.76,-66 2713.76,-62.5 2713.76,-69.5"/>
<text text-anchor="middle" x="2682.58" y="-69" font-family="Helvetica" font-size="10.00">row_written</text>
</g>
<!-- CI -->
<g id="node11" class="node">
<title>CI</title>
<path fill="none" stroke="black" d="M3185.08,-84C3185.08,-84 3018.08,-84 3018.08,-84 3012.08,-84 3006.08,-78 3006.08,-72 3006.08,-72 3006.08,-52 3006.08,-52 3006.08,-46 3012.08,-40 3018.08,-40 3018.08,-40 3185.08,-40 3185.08,-40 3191.08,-40 3197.08,-46 3197.08,-52 3197.08,-52 3197.08,-72 3197.08,-72 3197.08,-78 3191.08,-84 3185.08,-84"/>
<text text-anchor="middle" x="3101.58" y="-71.2" font-family="Helvetica" font-size="11.00">Update Stopping Stats</text>
<text text-anchor="middle" x="3101.58" y="-59.2" font-family="Helvetica" font-size="11.00">(action: compute p̂ and CI halfwidths</text>
<text text-anchor="middle" x="3101.58" y="-47.2" font-family="Helvetica" font-size="11.00">for stay and switch)</text>
</g>
<!-- Agg&#45;&gt;CI -->
<g id="edge10" class="edge">
<title>Agg&#45;&gt;CI</title>
<path fill="none" stroke="black" d="M2895.24,-64.83C2926.68,-64.4 2962.72,-63.9 2995.75,-63.45"/>
<polygon fill="black" stroke="black" points="2995.94,-66.94 3005.89,-63.31 2995.84,-59.94 2995.94,-66.94"/>
<text text-anchor="middle" x="2950.58" y="-67" font-family="Helvetica" font-size="10.00">counters_updated</text>
</g>
<!-- Check -->
<g id="node12" class="node">
<title>Check</title>
<path fill="none" stroke="black" d="M141,-203C141,-203 28,-203 28,-203 22,-203 16,-197 16,-191 16,-191 16,-147 16,-147 16,-141 22,-135 28,-135 28,-135 141,-135 141,-135 147,-135 153,-141 153,-147 153,-147 153,-191 153,-191 153,-197 147,-203 141,-203"/>
<text text-anchor="middle" x="84.5" y="-190.2" font-family="Helvetica" font-size="11.00">Stopping Rule</text>
<text text-anchor="middle" x="84.5" y="-178.2" font-family="Helvetica" font-size="11.00">IF halfwidth(stay)≤ε AND</text>
<text text-anchor="middle" x="84.5" y="-166.2" font-family="Helvetica" font-size="11.00"> &#160;&#160;halfwidth(switch)≤ε</text>
<text text-anchor="middle" x="84.5" y="-154.2" font-family="Helvetica" font-size="11.00">THEN stop</text>
<text text-anchor="middle" x="84.5" y="-142.2" font-family="Helvetica" font-size="11.00">ELSE continue</text>
</g>
<!-- CI&#45;&gt;Check -->
<g id="edge11" class="edge">
<title>CI&#45;&gt;Check</title>
<path fill="none" stroke="black" d="M3035.77,-39.97C2977.55,-22.15 2889.35,0 2810.58,0 354.04,0 354.04,0 354.04,0 300.85,0 284.05,-0.19 237,-25 189.45,-50.07 146.21,-94.34 118.2,-127.2"/>
<polygon fill="black" stroke="black" points="115.52,-124.95 111.77,-134.86 120.88,-129.45 115.52,-124.95"/>
<text text-anchor="middle" x="1499.08" y="-3" font-family="Helvetica" font-size="10.00">stats_updated</text>
</g>
<!-- Check&#45;&gt;Start -->
<g id="edge13" class="edge">
<title>Check&#45;&gt;Start</title>
<path fill="none" stroke="black" d="M153.26,-142.5C198.09,-124.98 256.16,-102.27 298.3,-85.79"/>
<polygon fill="black" stroke="black" points="299.81,-88.96 307.85,-82.06 297.26,-82.44 299.81,-88.96"/>
<text text-anchor="middle" x="195" y="-138" font-family="Helvetica" font-size="10.00">stop = false</text>
</g>
<!-- Stop -->
<g id="node13" class="node">
<title>Stop</title>
<path fill="none" stroke="black" d="M469.12,-165.62C469.12,-165.62 469.12,-172.38 469.12,-172.38 469.12,-175.76 465.81,-179.85 462.51,-180.56 462.51,-180.56 408.9,-192.07 408.9,-192.07 405.6,-192.78 398.91,-193.48 395.53,-193.48 395.53,-193.48 314.55,-193.48 314.55,-193.48 311.17,-193.48 304.48,-192.78 301.18,-192.07 301.18,-192.07 247.57,-180.56 247.57,-180.56 244.27,-179.85 240.96,-175.76 240.96,-172.38 240.96,-172.38 240.96,-165.62 240.96,-165.62 240.96,-162.24 244.27,-158.15 247.57,-157.44 247.57,-157.44 301.18,-145.93 301.18,-145.93 304.48,-145.22 311.17,-144.52 314.55,-144.52 314.55,-144.52 395.53,-144.52 395.53,-144.52 398.91,-144.52 405.6,-145.22 408.9,-145.93 408.9,-145.93 462.51,-157.44 462.51,-157.44 465.81,-158.15 469.12,-162.24 469.12,-165.62"/>
<path fill="none" stroke="black" d="M473.12,-164.54C473.12,-164.54 473.12,-173.46 473.12,-173.46 473.12,-177.92 468.76,-183.31 464.4,-184.24 464.4,-184.24 411.43,-195.61 411.43,-195.61 407.08,-196.55 398.26,-197.48 393.8,-197.48 393.8,-197.48 316.28,-197.48 316.28,-197.48 311.82,-197.48 303,-196.55 298.65,-195.61 298.65,-195.61 245.68,-184.24 245.68,-184.24 241.32,-183.31 236.96,-177.92 236.96,-173.46 236.96,-173.46 236.96,-164.54 236.96,-164.54 236.96,-160.08 241.32,-154.69 245.68,-153.76 245.68,-153.76 298.65,-142.39 298.65,-142.39 303,-141.45 311.82,-140.52 316.28,-140.52 316.28,-140.52 393.8,-140.52 393.8,-140.52 398.26,-140.52 407.08,-141.45 411.43,-142.39 411.43,-142.39 464.4,-153.76 464.4,-153.76 468.76,-154.69 473.12,-160.08 473.12,-164.54"/>
<text text-anchor="middle" x="355.04" y="-172.2" font-family="Helvetica" font-size="11.00">Stop + Export Summary</text>
<text text-anchor="middle" x="355.04" y="-160.2" font-family="Helvetica" font-size="11.00">(action: finalize tables/plots)</text>
</g>
<!-- Check&#45;&gt;Stop -->
<g id="edge12" class="edge">
<title>Check&#45;&gt;Stop</title>
<path fill="none" stroke="black" d="M153.26,-169C175.69,-169 201.43,-169 226.83,-169"/>
<polygon fill="black" stroke="black" points="226.92,-172.5 236.92,-169 226.92,-165.5 226.92,-172.5"/>
<text text-anchor="middle" x="195" y="-172" font-family="Helvetica" font-size="10.00">stop = true</text>
</g>
</g>
</svg>
