<?xml version="1.0" encoding="UTF-8" standalone="no"?>
<!DOCTYPE svg PUBLIC "-//W3C//DTD SVG 1.1//EN"
 "http://www.w3.org/Graphics/SVG/1.1/DTD/svg11.dtd">
<!-- Generated by graphviz version 2.44.0 (0)
 -->
<!-- Title: LoginFSM Pages: 1 -->
<svg width="622pt" height="355pt"
 viewBox="0.00 0.00 622.09 354.81" xmlns="http://www.w3.org/2000/svg" xmlns:xlink="http://www.w3.org/1999/xlink">
<g id="graph0" class="graph" transform="scale(1 1) rotate(0) translate(4 350.81)">
<title>LoginFSM</title>
<polygon fill="white" stroke="transparent" points="-4,4 -4,-350.81 618.09,-350.81 618.09,4 -4,4"/>
<text text-anchor="middle" x="307.05" y="-328.41" font-family="Times-Roman" font-size="18.00">Login FSM (simplified)</text>
<!-- start -->
<g id="node1" class="node">
<title>start</title>
<ellipse fill="black" stroke="black" cx="1.8" cy="-151.78" rx="1.8" ry="1.8"/>
</g>
<!-- LoggedOut -->
<g id="node2" class="node">
<title>LoggedOut</title>
<ellipse fill="none" stroke="black" cx="93.54" cy="-151.78" rx="52.88" ry="52.88"/>
<text text-anchor="middle" x="93.54" y="-148.68" font-family="Times-Roman" font-size="12.00">Logged Out</text>
</g>
<!-- start&#45;&gt;LoggedOut -->
<g id="edge1" class="edge">
<title>start&#45;&gt;LoggedOut</title>
<path fill="none" stroke="black" d="M3.81,-151.78C7.03,-151.78 17.63,-151.78 30.43,-151.78"/>
<polygon fill="black" stroke="black" points="30.57,-155.28 40.57,-151.78 30.57,-148.28 30.57,-155.28"/>
</g>
<!-- Auth -->
<g id="node3" class="node">
<title>Auth</title>
<ellipse fill="none" stroke="black" cx="376.5" cy="-254.78" rx="64.04" ry="64.04"/>
<text text-anchor="middle" x="376.5" y="-251.68" font-family="Times-Roman" font-size="12.00">Authenticating</text>
</g>
<!-- LoggedOut&#45;&gt;Auth -->
<g id="edge2" class="edge">
<title>LoggedOut&#45;&gt;Auth</title>
<path fill="none" stroke="black" d="M128.29,-191.88C138.87,-202.13 151.26,-212.13 164.48,-218.78 207.11,-240.25 260.07,-249.24 302.26,-252.86"/>
<polygon fill="black" stroke="black" points="302.23,-256.37 312.47,-253.66 302.77,-249.39 302.23,-256.37"/>
<text text-anchor="middle" x="229.48" y="-254.98" font-family="Times-Roman" font-size="11.00">submit creds</text>
</g>
<!-- Locked -->
<g id="node5" class="node">
<title>Locked</title>
<ellipse fill="none" stroke="black" cx="376.5" cy="-116.78" rx="52.16" ry="52.16"/>
<ellipse fill="none" stroke="black" cx="376.5" cy="-116.78" rx="56.15" ry="56.15"/>
<text text-anchor="middle" x="376.5" y="-113.68" font-family="Times-Roman" font-size="12.00">Locked Out</text>
</g>
<!-- LoggedOut&#45;&gt;Locked -->
<g id="edge6" class="edge">
<title>LoggedOut&#45;&gt;Locked</title>
<path fill="none" stroke="black" d="M146.41,-146.79C186.82,-142.72 244.3,-136.57 294.48,-129.78 299.64,-129.09 304.98,-128.32 310.34,-127.53"/>
<polygon fill="black" stroke="black" points="311.28,-130.93 320.64,-125.96 310.23,-124 311.28,-130.93"/>
<text text-anchor="middle" x="229.48" y="-147.98" font-family="Times-Roman" font-size="11.00">too many fails</text>
</g>
<!-- Auth&#45;&gt;LoggedOut -->
<g id="edge4" class="edge">
<title>Auth&#45;&gt;LoggedOut</title>
<path fill="none" stroke="black" d="M323.69,-218.11C314.26,-212.43 304.29,-207.05 294.48,-202.78 249.96,-183.43 196.55,-170.27 156.13,-162.18"/>
<polygon fill="black" stroke="black" points="156.64,-158.71 146.15,-160.23 155.29,-165.58 156.64,-158.71"/>
<text text-anchor="middle" x="229.48" y="-205.98" font-family="Times-Roman" font-size="11.00">fail</text>
</g>
<!-- LoggedIn -->
<g id="node4" class="node">
<title>LoggedIn</title>
<ellipse fill="none" stroke="black" cx="567.31" cy="-46.78" rx="46.57" ry="46.57"/>
<text text-anchor="middle" x="567.31" y="-43.68" font-family="Times-Roman" font-size="12.00">Logged In</text>
</g>
<!-- Auth&#45;&gt;LoggedIn -->
<g id="edge3" class="edge">
<title>Auth&#45;&gt;LoggedIn</title>
<path fill="none" stroke="black" d="M420.11,-207.85C452.57,-172.09 496.86,-123.3 528.16,-88.81"/>
<polygon fill="black" stroke="black" points="530.9,-91 535.03,-81.25 525.71,-86.3 530.9,-91"/>
<text text-anchor="middle" x="480.52" y="-165.98" font-family="Times-Roman" font-size="11.00">success</text>
</g>
<!-- LoggedIn&#45;&gt;LoggedOut -->
<g id="edge5" class="edge">
<title>LoggedIn&#45;&gt;LoggedOut</title>
<path fill="none" stroke="black" d="M520.87,-39.53C469.68,-32.73 384.27,-25.57 312.48,-39.78 242.69,-53.6 226.56,-66.02 164.48,-100.78 157.66,-104.61 150.72,-108.98 144,-113.52"/>
<polygon fill="black" stroke="black" points="141.83,-110.77 135.62,-119.34 145.83,-116.51 141.83,-110.77"/>
<text text-anchor="middle" x="376.5" y="-42.98" font-family="Times-Roman" font-size="11.00">logout / timeout</text>
</g>
<!-- Locked&#45;&gt;LoggedOut -->
<g id="edge7" class="edge">
<title>Locked&#45;&gt;LoggedOut</title>
<path fill="none" stroke="black" d="M320.41,-108.81C277.31,-104.34 216.22,-101.94 164.48,-114.78 159.15,-116.11 153.77,-117.92 148.5,-120.04"/>
<polygon fill="black" stroke="black" points="146.91,-116.92 139.15,-124.14 149.72,-123.33 146.91,-116.92"/>
<text text-anchor="middle" x="229.48" y="-117.98" font-family="Times-Roman" font-size="11.00">cooldown / admin reset</text>
</g>
</g>
</svg>
