<?xml version="1.0" encoding="UTF-8" standalone="no"?>
<!DOCTYPE svg PUBLIC "-//W3C//DTD SVG 1.1//EN"
 "http://www.w3.org/Graphics/SVG/1.1/DTD/svg11.dtd">
<!-- Generated by graphviz version 2.44.0 (0)
 -->
<!-- Title: TrafficLightFSM Pages: 1 -->
<svg width="435pt" height="162pt"
 viewBox="0.00 0.00 434.74 162.33" xmlns="http://www.w3.org/2000/svg" xmlns:xlink="http://www.w3.org/1999/xlink">
<g id="graph0" class="graph" transform="scale(1 1) rotate(0) translate(4 158.33)">
<title>TrafficLightFSM</title>
<polygon fill="white" stroke="transparent" points="-4,4 -4,-158.33 430.74,-158.33 430.74,4 -4,4"/>
<text text-anchor="middle" x="213.37" y="-135.93" font-family="Times-Roman" font-size="18.00">Traffic Light FSM</text>
<!-- start -->
<g id="node1" class="node">
<title>start</title>
<ellipse fill="black" stroke="black" cx="1.8" cy="-40.63" rx="1.8" ry="1.8"/>
</g>
<!-- Red -->
<g id="node2" class="node">
<title>Red</title>
<ellipse fill="none" stroke="black" cx="116.84" cy="-40.63" rx="25.48" ry="25.48"/>
<text text-anchor="middle" x="116.84" y="-37.53" font-family="Times-Roman" font-size="12.00">RED</text>
</g>
<!-- start&#45;&gt;Red -->
<g id="edge1" class="edge">
<title>start&#45;&gt;Red</title>
<path fill="none" stroke="black" d="M4.07,-40.63C11.62,-40.63 51.31,-40.63 81.26,-40.63"/>
<polygon fill="black" stroke="black" points="81.38,-44.13 91.38,-40.63 81.38,-37.13 81.38,-44.13"/>
<text text-anchor="middle" x="47.6" y="-43.83" font-family="Times-Roman" font-size="11.00">power on</text>
</g>
<!-- Green -->
<g id="node3" class="node">
<title>Green</title>
<ellipse fill="none" stroke="black" cx="243.78" cy="-90.63" rx="35.91" ry="35.91"/>
<text text-anchor="middle" x="243.78" y="-87.53" font-family="Times-Roman" font-size="12.00">GREEN</text>
</g>
<!-- Red&#45;&gt;Green -->
<g id="edge2" class="edge">
<title>Red&#45;&gt;Green</title>
<path fill="none" stroke="black" d="M140.47,-49.68C157.34,-56.44 180.88,-65.86 201.12,-73.96"/>
<polygon fill="black" stroke="black" points="199.87,-77.23 210.45,-77.69 202.47,-70.73 199.87,-77.23"/>
<text text-anchor="middle" x="175.08" y="-70.83" font-family="Times-Roman" font-size="11.00">timer</text>
</g>
<!-- Yellow -->
<g id="node4" class="node">
<title>Yellow</title>
<ellipse fill="none" stroke="black" cx="386.11" cy="-40.63" rx="40.76" ry="40.76"/>
<text text-anchor="middle" x="386.11" y="-37.53" font-family="Times-Roman" font-size="12.00">YELLOW</text>
</g>
<!-- Green&#45;&gt;Yellow -->
<g id="edge3" class="edge">
<title>Green&#45;&gt;Yellow</title>
<path fill="none" stroke="black" d="M277.68,-78.91C295.72,-72.48 318.37,-64.41 338.23,-57.34"/>
<polygon fill="black" stroke="black" points="339.47,-60.61 347.71,-53.95 337.12,-54.01 339.47,-60.61"/>
<text text-anchor="middle" x="312.49" y="-73.83" font-family="Times-Roman" font-size="11.00">timer</text>
</g>
<!-- Yellow&#45;&gt;Red -->
<g id="edge4" class="edge">
<title>Yellow&#45;&gt;Red</title>
<path fill="none" stroke="black" d="M345.52,-37.38C325.71,-35.92 301.34,-34.35 279.49,-33.63 247.77,-32.58 239.79,-32.4 208.08,-33.63 189.79,-34.34 169.46,-35.85 152.73,-37.29"/>
<polygon fill="black" stroke="black" points="151.97,-33.84 142.32,-38.21 152.59,-40.82 151.97,-33.84"/>
<text text-anchor="middle" x="243.78" y="-36.83" font-family="Times-Roman" font-size="11.00">timer</text>
</g>
</g>
</svg>
