<?xml version="1.0" encoding="UTF-8" standalone="no"?>
<!DOCTYPE svg PUBLIC "-//W3C//DTD SVG 1.1//EN"
 "http://www.w3.org/Graphics/SVG/1.1/DTD/svg11.dtd">
<!-- Generated by graphviz version 2.44.0 (0)
 -->
<!-- Title: TurnstileFSM Pages: 1 -->
<svg width="337pt" height="168pt"
 viewBox="0.00 0.00 336.81 168.19" xmlns="http://www.w3.org/2000/svg" xmlns:xlink="http://www.w3.org/1999/xlink">
<g id="graph0" class="graph" transform="scale(1 1) rotate(0) translate(4 164.19)">
<title>TurnstileFSM</title>
<polygon fill="white" stroke="transparent" points="-4,4 -4,-164.19 332.81,-164.19 332.81,4 -4,4"/>
<text text-anchor="middle" x="164.41" y="-141.79" font-family="Times-Roman" font-size="18.00">Turnstile FSM</text>
<!-- start -->
<g id="node1" class="node">
<title>start</title>
<ellipse fill="black" stroke="black" cx="1.8" cy="-51.09" rx="1.8" ry="1.8"/>
</g>
<!-- Locked -->
<g id="node2" class="node">
<title>Locked</title>
<ellipse fill="none" stroke="black" cx="80.61" cy="-51.09" rx="40.03" ry="40.03"/>
<text text-anchor="middle" x="80.61" y="-47.99" font-family="Times-Roman" font-size="12.00">LOCKED</text>
</g>
<!-- start&#45;&gt;Locked -->
<g id="edge1" class="edge">
<title>start&#45;&gt;Locked</title>
<path fill="none" stroke="black" d="M3.66,-51.09C6.73,-51.09 17.62,-51.09 30.22,-51.09"/>
<polygon fill="black" stroke="black" points="30.59,-54.59 40.59,-51.09 30.59,-47.59 30.59,-54.59"/>
</g>
<!-- Locked&#45;&gt;Locked -->
<g id="edge3" class="edge">
<title>Locked&#45;&gt;Locked</title>
<path fill="none" stroke="black" d="M69.79,-89.86C70.27,-100.75 73.87,-109.11 80.61,-109.11 85.04,-109.11 88.11,-105.51 89.83,-99.96"/>
<polygon fill="black" stroke="black" points="93.33,-100.29 91.43,-89.86 86.41,-99.19 93.33,-100.29"/>
<text text-anchor="middle" x="80.61" y="-112.31" font-family="Times-Roman" font-size="11.00">push / alarm</text>
</g>
<!-- Unlocked -->
<g id="node3" class="node">
<title>Unlocked</title>
<ellipse fill="none" stroke="black" cx="277.72" cy="-51.09" rx="51.19" ry="51.19"/>
<text text-anchor="middle" x="277.72" y="-47.99" font-family="Times-Roman" font-size="12.00">UNLOCKED</text>
</g>
<!-- Locked&#45;&gt;Unlocked -->
<g id="edge2" class="edge">
<title>Locked&#45;&gt;Unlocked</title>
<path fill="none" stroke="black" d="M120.63,-51.09C147.9,-51.09 184.87,-51.09 215.98,-51.09"/>
<polygon fill="black" stroke="black" points="216.28,-54.59 226.28,-51.09 216.28,-47.59 216.28,-54.59"/>
<text text-anchor="middle" x="173.63" y="-54.29" font-family="Times-Roman" font-size="11.00">coin / unlock</text>
</g>
<!-- Unlocked&#45;&gt;Locked -->
<g id="edge4" class="edge">
<title>Unlocked&#45;&gt;Locked</title>
<path fill="none" stroke="black" d="M228.23,-38.27C221.68,-36.95 215.02,-35.83 208.63,-35.09 177.72,-31.51 169.45,-30.85 138.63,-35.09 135.42,-35.54 132.14,-36.11 128.85,-36.78"/>
<polygon fill="black" stroke="black" points="127.99,-33.38 119.03,-39.03 129.56,-40.21 127.99,-33.38"/>
<text text-anchor="middle" x="173.63" y="-38.29" font-family="Times-Roman" font-size="11.00">push / lock</text>
</g>
<!-- Unlocked&#45;&gt;Unlocked -->
<g id="edge5" class="edge">
<title>Unlocked&#45;&gt;Unlocked</title>
<path fill="none" stroke="black" d="M258.42,-98.56C259.61,-110.89 266.04,-120.19 277.72,-120.19 285.93,-120.19 291.55,-115.59 294.58,-108.58"/>
<polygon fill="black" stroke="black" points="298.05,-109.11 297.02,-98.56 291.25,-107.45 298.05,-109.11"/>
<text text-anchor="middle" x="277.72" y="-123.39" font-family="Times-Roman" font-size="11.00">coin / thank you</text>
</g>
</g>
</svg>
