<?xml version="1.0" encoding="UTF-8" standalone="no"?>
<!DOCTYPE svg PUBLIC "-//W3C//DTD SVG 1.1//EN"
 "http://www.w3.org/Graphics/SVG/1.1/DTD/svg11.dtd">
<!-- Generated by graphviz version 2.44.0 (0)
 -->
<!-- Title: FSM Pages: 1 -->
<svg width="266pt" height="84pt"
 viewBox="0.00 0.00 265.79 84.40" xmlns="http://www.w3.org/2000/svg" xmlns:xlink="http://www.w3.org/1999/xlink">
<g id="graph0" class="graph" transform="scale(1 1) rotate(0) translate(4 80.4)">
<title>FSM</title>
<polygon fill="white" stroke="transparent" points="-4,4 -4,-80.4 261.79,-80.4 261.79,4 -4,4"/>
<!-- start -->
<g id="node1" class="node">
<title>start</title>
<ellipse fill="black" stroke="black" cx="1.8" cy="-23.7" rx="1.8" ry="1.8"/>
</g>
<!-- q0 -->
<g id="node2" class="node">
<title>q0</title>
<ellipse fill="none" stroke="black" cx="60.3" cy="-23.7" rx="19.9" ry="19.9"/>
<text text-anchor="middle" x="60.3" y="-20.6" font-family="Times-Roman" font-size="12.00">q0</text>
</g>
<!-- start&#45;&gt;q0 -->
<g id="edge1" class="edge">
<title>start&#45;&gt;q0</title>
<path fill="none" stroke="black" d="M3.78,-23.7C7.16,-23.7 18.75,-23.7 30.47,-23.7"/>
<polygon fill="black" stroke="black" points="30.6,-27.2 40.6,-23.7 30.6,-20.2 30.6,-27.2"/>
</g>
<!-- q1 -->
<g id="node4" class="node">
<title>q1</title>
<ellipse fill="none" stroke="black" cx="144.7" cy="-23.7" rx="19.9" ry="19.9"/>
<text text-anchor="middle" x="144.7" y="-20.6" font-family="Times-Roman" font-size="12.00">q1</text>
</g>
<!-- q0&#45;&gt;q1 -->
<g id="edge2" class="edge">
<title>q0&#45;&gt;q1</title>
<path fill="none" stroke="black" d="M80.41,-23.7C90.57,-23.7 103.27,-23.7 114.63,-23.7"/>
<polygon fill="black" stroke="black" points="114.97,-27.2 124.97,-23.7 114.97,-20.2 114.97,-27.2"/>
<text text-anchor="middle" x="102.5" y="-27.5" font-family="Times-Roman" font-size="14.00">a</text>
</g>
<!-- q2 -->
<g id="node3" class="node">
<title>q2</title>
<ellipse fill="none" stroke="black" cx="234.09" cy="-23.7" rx="19.87" ry="19.87"/>
<ellipse fill="none" stroke="black" cx="234.09" cy="-23.7" rx="23.9" ry="23.9"/>
<text text-anchor="middle" x="234.09" y="-20.6" font-family="Times-Roman" font-size="12.00">q2</text>
</g>
<!-- q2&#45;&gt;q1 -->
<g id="edge4" class="edge">
<title>q2&#45;&gt;q1</title>
<path fill="none" stroke="black" d="M214.17,-10.8C204.79,-5.91 193.17,-2.07 182.4,-4.7 178.51,-5.65 174.57,-7.08 170.79,-8.75"/>
<polygon fill="black" stroke="black" points="169.22,-5.62 161.84,-13.22 172.35,-11.88 169.22,-5.62"/>
<text text-anchor="middle" x="187.4" y="-8.5" font-family="Times-Roman" font-size="14.00">c</text>
</g>
<!-- q1&#45;&gt;q2 -->
<g id="edge3" class="edge">
<title>q1&#45;&gt;q2</title>
<path fill="none" stroke="black" d="M164.66,-23.7C174.99,-23.7 188.07,-23.7 200.02,-23.7"/>
<polygon fill="black" stroke="black" points="200.13,-27.2 210.13,-23.7 200.13,-20.2 200.13,-27.2"/>
<text text-anchor="middle" x="187.4" y="-27.5" font-family="Times-Roman" font-size="14.00">b</text>
</g>
<!-- q1&#45;&gt;q1 -->
<g id="edge5" class="edge">
<title>q1&#45;&gt;q1</title>
<path fill="none" stroke="black" d="M137.2,-41.93C135.8,-52.06 138.3,-61.4 144.7,-61.4 148.8,-61.4 151.29,-57.57 152.19,-52.15"/>
<polygon fill="black" stroke="black" points="155.69,-51.93 152.19,-41.93 148.69,-51.93 155.69,-51.93"/>
<text text-anchor="middle" x="144.7" y="-65.2" font-family="Times-Roman" font-size="14.00">a</text>
</g>
</g>
</svg>
