<?xml version="1.0" encoding="UTF-8" standalone="no"?>
<!DOCTYPE svg PUBLIC "-//W3C//DTD SVG 1.1//EN"
 "http://www.w3.org/Graphics/SVG/1.1/DTD/svg11.dtd">
<!-- Generated by graphviz version 2.44.0 (0)
 -->
<!-- Title: MontyHallFSM Pages: 1 -->
<svg width="1143pt" height="252pt"
 viewBox="0.00 0.00 1143.43 252.00" xmlns="http://www.w3.org/2000/svg" xmlns:xlink="http://www.w3.org/1999/xlink">
<g id="graph0" class="graph" transform="scale(1 1) rotate(0) translate(4 248)">
<title>MontyHallFSM</title>
<polygon fill="white" stroke="transparent" points="-4,4 -4,-248 1139.43,-248 1139.43,4 -4,4"/>
<text text-anchor="middle" x="567.71" y="-225.6" font-family="Times-Roman" font-size="18.00">Monty Hall Finite STate Machine</text>
<!-- start -->
<g id="node1" class="node">
<title>start</title>
<ellipse fill="black" stroke="black" cx="1.8" cy="-102" rx="1.8" ry="1.8"/>
</g>
<!-- Ready -->
<g id="node2" class="node">
<title>Ready</title>
<ellipse fill="none" stroke="black" cx="73.23" cy="-102" rx="32.75" ry="32.75"/>
<text text-anchor="middle" x="73.23" y="-98.9" font-family="Times-Roman" font-size="12.00">Ready</text>
</g>
<!-- start&#45;&gt;Ready -->
<g id="edge1" class="edge">
<title>start&#45;&gt;Ready</title>
<path fill="none" stroke="black" d="M3.78,-102C7.06,-102 18.11,-102 30.41,-102"/>
<polygon fill="black" stroke="black" points="30.41,-105.5 40.41,-102 30.41,-98.5 30.41,-105.5"/>
</g>
<!-- Game_Pick -->
<g id="node3" class="node">
<title>Game_Pick</title>
<ellipse fill="none" stroke="black" cx="248.98" cy="-102" rx="72.25" ry="72.25"/>
<text text-anchor="middle" x="248.98" y="-111.9" font-family="Times-Roman" font-size="12.00">Game decides</text>
<text text-anchor="middle" x="248.98" y="-98.9" font-family="Times-Roman" font-size="12.00"> prize location</text>
<text text-anchor="middle" x="248.98" y="-85.9" font-family="Times-Roman" font-size="12.00">(door i)</text>
</g>
<!-- Ready&#45;&gt;Game_Pick -->
<g id="edge2" class="edge">
<title>Ready&#45;&gt;Game_Pick</title>
<path fill="none" stroke="black" d="M106.09,-102C123.18,-102 145.08,-102 166.55,-102"/>
<polygon fill="black" stroke="black" points="166.69,-105.5 176.69,-102 166.69,-98.5 166.69,-105.5"/>
<text text-anchor="middle" x="141.35" y="-117.2" font-family="Times-Roman" font-size="11.00">new</text>
<text text-anchor="middle" x="141.35" y="-105.2" font-family="Times-Roman" font-size="11.00"> game</text>
</g>
<!-- Player_Pick -->
<g id="node4" class="node">
<title>Player_Pick</title>
<ellipse fill="none" stroke="black" cx="419.62" cy="-102" rx="61.54" ry="61.54"/>
<text text-anchor="middle" x="419.62" y="-105.4" font-family="Times-Roman" font-size="12.00">Player Picks</text>
<text text-anchor="middle" x="419.62" y="-92.4" font-family="Times-Roman" font-size="12.00">(door i)</text>
</g>
<!-- Game_Pick&#45;&gt;Player_Pick -->
<g id="edge3" class="edge">
<title>Game_Pick&#45;&gt;Player_Pick</title>
<path fill="none" stroke="black" d="M321.5,-102C330.21,-102 339.11,-102 347.81,-102"/>
<polygon fill="black" stroke="black" points="347.91,-105.5 357.91,-102 347.91,-98.5 347.91,-105.5"/>
</g>
<!-- Game_Reveal -->
<g id="node5" class="node">
<title>Game_Reveal</title>
<ellipse fill="none" stroke="black" cx="662.95" cy="-102" rx="60.62" ry="60.62"/>
<text text-anchor="middle" x="662.95" y="-105.4" font-family="Times-Roman" font-size="12.00">Host Opens</text>
<text text-anchor="middle" x="662.95" y="-92.4" font-family="Times-Roman" font-size="12.00">(goat door)</text>
</g>
<!-- Player_Pick&#45;&gt;Game_Reveal -->
<g id="edge4" class="edge">
<title>Player_Pick&#45;&gt;Game_Reveal</title>
<path fill="none" stroke="black" d="M481.21,-102C514.75,-102 556.62,-102 591.61,-102"/>
<polygon fill="black" stroke="black" points="591.76,-105.5 601.76,-102 591.76,-98.5 591.76,-105.5"/>
<text text-anchor="middle" x="541.64" y="-117.2" font-family="Times-Roman" font-size="11.00">reveal</text>
<text text-anchor="middle" x="541.64" y="-105.2" font-family="Times-Roman" font-size="11.00"> step</text>
</g>
<!-- Player_Decide -->
<g id="node6" class="node">
<title>Player_Decide</title>
<ellipse fill="none" stroke="black" cx="874.01" cy="-102" rx="74.49" ry="74.49"/>
<text text-anchor="middle" x="874.01" y="-105.4" font-family="Times-Roman" font-size="12.00">Player Decides</text>
<text text-anchor="middle" x="874.01" y="-92.4" font-family="Times-Roman" font-size="12.00">Stay / Switch</text>
</g>
<!-- Game_Reveal&#45;&gt;Player_Decide -->
<g id="edge5" class="edge">
<title>Game_Reveal&#45;&gt;Player_Decide</title>
<path fill="none" stroke="black" d="M723.86,-102C744.37,-102 767.69,-102 789.71,-102"/>
<polygon fill="black" stroke="black" points="789.72,-105.5 799.72,-102 789.72,-98.5 789.72,-105.5"/>
<text text-anchor="middle" x="761.76" y="-117.2" font-family="Times-Roman" font-size="11.00">offer</text>
<text text-anchor="middle" x="761.76" y="-105.2" font-family="Times-Roman" font-size="11.00"> switch</text>
</g>
<!-- Win -->
<g id="node7" class="node">
<title>Win</title>
<ellipse fill="none" stroke="black" cx="1104.34" cy="-146" rx="23.3" ry="23.3"/>
<ellipse fill="none" stroke="black" cx="1104.34" cy="-146" rx="27.29" ry="27.29"/>
<text text-anchor="middle" x="1104.34" y="-142.9" font-family="Times-Roman" font-size="12.00">Win</text>
</g>
<!-- Player_Decide&#45;&gt;Win -->
<g id="edge6" class="edge">
<title>Player_Decide&#45;&gt;Win</title>
<path fill="none" stroke="black" d="M947.25,-115.92C987.34,-123.65 1035.43,-132.91 1067.54,-139.1"/>
<polygon fill="black" stroke="black" points="1066.89,-142.54 1077.37,-141 1068.21,-135.67 1066.89,-142.54"/>
<text text-anchor="middle" x="1010.75" y="-151.2" font-family="Times-Roman" font-size="11.00">(depends where</text>
<text text-anchor="middle" x="1010.75" y="-139.2" font-family="Times-Roman" font-size="11.00"> the prize is)</text>
</g>
<!-- Lose -->
<g id="node8" class="node">
<title>Lose</title>
<ellipse fill="none" stroke="black" cx="1104.34" cy="-57" rx="27.16" ry="27.16"/>
<ellipse fill="none" stroke="black" cx="1104.34" cy="-57" rx="31.17" ry="31.17"/>
<text text-anchor="middle" x="1104.34" y="-53.9" font-family="Times-Roman" font-size="12.00">Lose</text>
</g>
<!-- Player_Decide&#45;&gt;Lose -->
<g id="edge7" class="edge">
<title>Player_Decide&#45;&gt;Lose</title>
<path fill="none" stroke="black" d="M946.94,-87.82C985.51,-80.22 1031.57,-71.14 1063.67,-64.82"/>
<polygon fill="black" stroke="black" points="1064.45,-68.23 1073.58,-62.87 1063.09,-61.36 1064.45,-68.23"/>
<text text-anchor="middle" x="1010.75" y="-98.2" font-family="Times-Roman" font-size="11.00">(depends where</text>
<text text-anchor="middle" x="1010.75" y="-86.2" font-family="Times-Roman" font-size="11.00"> the prize is)</text>
</g>
<!-- Win&#45;&gt;Ready -->
<g id="edge8" class="edge">
<title>Win&#45;&gt;Ready</title>
<path fill="none" stroke="black" d="M1078.86,-156.5C1037.61,-173.22 951.29,-204 875.01,-204 247.98,-204 247.98,-204 247.98,-204 190.82,-204 135.84,-162.44 103.55,-132.38"/>
<polygon fill="black" stroke="black" points="105.88,-129.77 96.23,-125.4 101.05,-134.84 105.88,-129.77"/>
<text text-anchor="middle" x="541.64" y="-207.2" font-family="Times-Roman" font-size="11.00">reset the game</text>
</g>
<!-- Lose&#45;&gt;Ready -->
<g id="edge9" class="edge">
<title>Lose&#45;&gt;Ready</title>
<path fill="none" stroke="black" d="M1075.42,-45.33C1032.94,-28.65 949.16,0 875.01,0 247.98,0 247.98,0 247.98,0 190.82,0 135.84,-41.56 103.55,-71.62"/>
<polygon fill="black" stroke="black" points="101.05,-69.16 96.23,-78.6 105.88,-74.23 101.05,-69.16"/>
<text text-anchor="middle" x="541.64" y="-3.2" font-family="Times-Roman" font-size="11.00">reset the game</text>
</g>
</g>
</svg>
