<?xml version="1.0" encoding="UTF-8" standalone="no"?>
<!DOCTYPE svg PUBLIC "-//W3C//DTD SVG 1.1//EN"
 "http://www.w3.org/Graphics/SVG/1.1/DTD/svg11.dtd">
<!-- Generated by graphviz version 2.44.0 (0)
 -->
<!-- Title: MontyHallFSM Pages: 1 -->
<svg width="955pt" height="252pt"
 viewBox="0.00 0.00 955.18 252.00" xmlns="http://www.w3.org/2000/svg" xmlns:xlink="http://www.w3.org/1999/xlink">
<g id="graph0" class="graph" transform="scale(1 1) rotate(0) translate(4 248)">
<title>MontyHallFSM</title>
<polygon fill="white" stroke="transparent" points="-4,4 -4,-248 951.18,-248 951.18,4 -4,4"/>
<text text-anchor="middle" x="473.59" y="-225.6" font-family="Times-Roman" font-size="18.00">Monty Hall FSM (starter; expand as needed)</text>
<!-- start -->
<g id="node1" class="node">
<title>start</title>
<ellipse fill="black" stroke="black" cx="1.8" cy="-102" rx="1.8" ry="1.8"/>
</g>
<!-- Ready -->
<g id="node2" class="node">
<title>Ready</title>
<ellipse fill="none" stroke="black" cx="73.23" cy="-102" rx="32.75" ry="32.75"/>
<text text-anchor="middle" x="73.23" y="-98.9" font-family="Times-Roman" font-size="12.00">Ready</text>
</g>
<!-- start&#45;&gt;Ready -->
<g id="edge1" class="edge">
<title>start&#45;&gt;Ready</title>
<path fill="none" stroke="black" d="M3.78,-102C7.06,-102 18.11,-102 30.41,-102"/>
<polygon fill="black" stroke="black" points="30.41,-105.5 40.41,-102 30.41,-98.5 30.41,-105.5"/>
</g>
<!-- Pick -->
<g id="node3" class="node">
<title>Pick</title>
<ellipse fill="none" stroke="black" cx="261.37" cy="-102" rx="61.54" ry="61.54"/>
<text text-anchor="middle" x="261.37" y="-105.4" font-family="Times-Roman" font-size="12.00">Player Picks</text>
<text text-anchor="middle" x="261.37" y="-92.4" font-family="Times-Roman" font-size="12.00">(door i)</text>
</g>
<!-- Ready&#45;&gt;Pick -->
<g id="edge2" class="edge">
<title>Ready&#45;&gt;Pick</title>
<path fill="none" stroke="black" d="M106.23,-102C129.1,-102 160.79,-102 189.48,-102"/>
<polygon fill="black" stroke="black" points="189.49,-105.5 199.49,-102 189.49,-98.5 189.49,-105.5"/>
<text text-anchor="middle" x="152.85" y="-105.2" font-family="Times-Roman" font-size="11.00">new game</text>
</g>
<!-- Host -->
<g id="node4" class="node">
<title>Host</title>
<ellipse fill="none" stroke="black" cx="482.7" cy="-102" rx="60.62" ry="60.62"/>
<text text-anchor="middle" x="482.7" y="-105.4" font-family="Times-Roman" font-size="12.00">Host Opens</text>
<text text-anchor="middle" x="482.7" y="-92.4" font-family="Times-Roman" font-size="12.00">(goat door)</text>
</g>
<!-- Pick&#45;&gt;Host -->
<g id="edge3" class="edge">
<title>Pick&#45;&gt;Host</title>
<path fill="none" stroke="black" d="M323.17,-102C350.5,-102 382.91,-102 411.28,-102"/>
<polygon fill="black" stroke="black" points="411.54,-105.5 421.54,-102 411.54,-98.5 411.54,-105.5"/>
<text text-anchor="middle" x="372.39" y="-105.2" font-family="Times-Roman" font-size="11.00">reveal step</text>
</g>
<!-- Decide -->
<g id="node5" class="node">
<title>Decide</title>
<ellipse fill="none" stroke="black" cx="718.76" cy="-102" rx="74.49" ry="74.49"/>
<text text-anchor="middle" x="718.76" y="-105.4" font-family="Times-Roman" font-size="12.00">Player Decides</text>
<text text-anchor="middle" x="718.76" y="-92.4" font-family="Times-Roman" font-size="12.00">Stay / Switch</text>
</g>
<!-- Host&#45;&gt;Decide -->
<g id="edge4" class="edge">
<title>Host&#45;&gt;Decide</title>
<path fill="none" stroke="black" d="M543.67,-102C571.17,-102 604.24,-102 634.13,-102"/>
<polygon fill="black" stroke="black" points="634.14,-105.5 644.14,-102 634.14,-98.5 634.14,-105.5"/>
<text text-anchor="middle" x="594.01" y="-105.2" font-family="Times-Roman" font-size="11.00">offer switch</text>
</g>
<!-- Win -->
<g id="node6" class="node">
<title>Win</title>
<ellipse fill="none" stroke="black" cx="916.09" cy="-153" rx="23.3" ry="23.3"/>
<ellipse fill="none" stroke="black" cx="916.09" cy="-153" rx="27.29" ry="27.29"/>
<text text-anchor="middle" x="916.09" y="-149.9" font-family="Times-Roman" font-size="12.00">Win</text>
</g>
<!-- Decide&#45;&gt;Win -->
<g id="edge5" class="edge">
<title>Decide&#45;&gt;Win</title>
<path fill="none" stroke="black" d="M790.83,-120.56C820.8,-128.38 854.39,-137.15 879.08,-143.6"/>
<polygon fill="black" stroke="black" points="878.52,-147.07 889.08,-146.21 880.29,-140.3 878.52,-147.07"/>
<text text-anchor="middle" x="839" y="-142.2" font-family="Times-Roman" font-size="11.00">(depends)</text>
</g>
<!-- Lose -->
<g id="node7" class="node">
<title>Lose</title>
<ellipse fill="none" stroke="black" cx="916.09" cy="-64" rx="27.16" ry="27.16"/>
<ellipse fill="none" stroke="black" cx="916.09" cy="-64" rx="31.17" ry="31.17"/>
<text text-anchor="middle" x="916.09" y="-60.9" font-family="Times-Roman" font-size="12.00">Lose</text>
</g>
<!-- Decide&#45;&gt;Lose -->
<g id="edge6" class="edge">
<title>Decide&#45;&gt;Lose</title>
<path fill="none" stroke="black" d="M791.94,-87.96C820.15,-82.47 851.41,-76.39 875.38,-71.73"/>
<polygon fill="black" stroke="black" points="876.36,-75.1 885.5,-69.76 875.02,-68.23 876.36,-75.1"/>
<text text-anchor="middle" x="839" y="-87.2" font-family="Times-Roman" font-size="11.00">(depends)</text>
</g>
<!-- Win&#45;&gt;Ready -->
<g id="edge7" class="edge">
<title>Win&#45;&gt;Ready</title>
<path fill="none" stroke="black" d="M890.65,-163.69C854.18,-178.65 783.02,-204 719.76,-204 260.37,-204 260.37,-204 260.37,-204 199.47,-204 139.63,-161.5 104.86,-131.36"/>
<polygon fill="black" stroke="black" points="106.79,-128.4 96.99,-124.38 102.15,-133.64 106.79,-128.4"/>
<text text-anchor="middle" x="482.7" y="-207.2" font-family="Times-Roman" font-size="11.00">reset</text>
</g>
<!-- Lose&#45;&gt;Ready -->
<g id="edge8" class="edge">
<title>Lose&#45;&gt;Ready</title>
<path fill="none" stroke="black" d="M888.5,-49.32C851.73,-30.42 782.74,0 719.76,0 260.37,0 260.37,0 260.37,0 199.47,0 139.63,-42.5 104.86,-72.64"/>
<polygon fill="black" stroke="black" points="102.15,-70.36 96.99,-79.62 106.79,-75.6 102.15,-70.36"/>
<text text-anchor="middle" x="482.7" y="-3.2" font-family="Times-Roman" font-size="11.00">reset</text>
</g>
</g>
</svg>
